<svg xmlns="http://www.w3.org/2000/svg" width="512" height="512" viewBox="0 0 512 512">
  <rect width="512" height="512" rx="112" fill="#f8fbff"/>
  <rect x="48" y="48" width="416" height="416" rx="92" fill="#eef6ff"/>
  <path
    fill="#7e14ff"
    d="M275.6 403.4c-7.1 9.1-21.7 4-21.7-7.5V285.3a24.3 24.3 0 0 0-24.3-24.3H107.5c-9.9 0-15.6-11.2-9.9-19.2l80.3-112.4c11.5-16.1 0-38.4-19.8-38.4H10.4C.5 91-5.2 79.8.5 71.8L104.6-73.9c2.3-3.2 6-5.1 9.9-5.1h310.2c9.9 0 15.6 11.2 9.9 19.2l-80.3 112.4c-11.5 16.1 0 38.4 19.8 38.4h122.1c10.1 0 15.8 11.7 9.5 19.7L275.6 403.4Z"
    transform="translate(58 104) scale(.82)"
  />
  <circle cx="342" cy="166" r="45" fill="#4ec3ff" opacity=".9"/>
  <circle cx="164" cy="337" r="56" fill="#ede6ff" opacity=".95"/>
  <path
    fill="#ffffff"
    d="M275.6 403.4c-7.1 9.1-21.7 4-21.7-7.5V285.3a24.3 24.3 0 0 0-24.3-24.3H107.5c-9.9 0-15.6-11.2-9.9-19.2l80.3-112.4c11.5-16.1 0-38.4-19.8-38.4H10.4C.5 91-5.2 79.8.5 71.8L104.6-73.9c2.3-3.2 6-5.1 9.9-5.1h310.2c9.9 0 15.6 11.2 9.9 19.2l-80.3 112.4c-11.5 16.1 0 38.4 19.8 38.4h122.1c10.1 0 15.8 11.7 9.5 19.7L275.6 403.4Z"
    opacity=".16"
    transform="translate(58 104) scale(.82)"
  />
</svg>
